<svg width="50" height="63" viewBox="0 0 50 63" fill="none" xmlns="http://www.w3.org/2000/svg">
<path d="M0.026701 53.1554C4.69252 58.539 13.3063 62.5767 24.7914 62.5767C39.6862 62.5767 49.5562 55.3088 49.5562 44.8107C49.5562 36.1969 41.8396 31.2619 35.469 30.6338C42.5574 29.4674 48.5692 24.1735 48.5692 17.1747C48.5692 7.30472 40.0451 0.754628 24.7914 0.754628C13.755 0.754628 5.85897 4.79236 0.834246 10.4452L8.10216 19.8665C12.3193 16.1877 17.703 13.9445 23.1763 13.9445C28.9189 13.9445 33.2258 15.9185 33.2258 19.6871C33.2258 23.007 29.7264 24.8015 23.5353 24.8015C21.2921 24.8015 16.6262 24.8015 15.4598 24.7118V37.9915C16.3571 37.9017 20.9332 37.812 23.5353 37.812C31.7004 37.812 34.2128 39.786 34.2128 43.2854C34.2128 46.7847 30.8032 49.4765 24.1633 49.4765C18.9592 49.4765 12.1399 47.2334 7.83297 43.0162L0.026701 53.1554Z" fill="#E32E30"/>
</svg>
