<svg width="95" height="94" viewBox="0 0 95 94" fill="none" xmlns="http://www.w3.org/2000/svg">
<path fill-rule="evenodd" clip-rule="evenodd" d="M47.4386 91.9401C72.4135 91.9401 92.6596 71.694 92.6596 46.7192C92.6596 21.7445 72.4135 1.49839 47.4386 1.49839C22.4638 1.49839 2.21763 21.7445 2.21763 46.7192C2.21763 71.694 22.4638 91.9401 47.4386 91.9401ZM47.4386 93.3401C73.1867 93.3401 94.0596 72.4672 94.0596 46.7192C94.0596 20.9713 73.1867 0.0983887 47.4386 0.0983887C21.6906 0.0983887 0.817627 20.9713 0.817627 46.7192C0.817627 72.4672 21.6906 93.3401 47.4386 93.3401ZM45.5218 54.5666C42.5069 54.2564 39.7865 53.524 37.4563 51.7274C37.3997 51.6836 37.3427 51.64 37.2857 51.5964C37.0519 51.4177 36.8178 51.2387 36.6061 51.0383C35.5877 50.0721 35.4848 48.9667 36.2902 47.8256C36.9805 46.8499 38.139 46.5885 39.3428 47.1485C39.5756 47.2581 39.7982 47.3938 40.0112 47.5391C44.3516 50.4803 50.3115 50.5632 54.6697 47.6708C55.1017 47.3445 55.5613 47.0776 56.0967 46.9419C57.1375 46.679 58.1064 47.056 58.6637 47.9533C59.3026 48.9783 59.2924 49.9796 58.5084 50.7748C57.3025 51.9944 55.8537 52.8781 54.2439 53.4949C52.7216 54.076 51.0558 54.3685 49.4042 54.5646C49.4777 54.643 49.5396 54.7097 49.5943 54.7687L49.5944 54.7688C49.7263 54.9109 49.8165 55.0082 49.9274 55.1165C50.7726 55.9549 51.6192 56.7916 52.4657 57.6281C53.8636 59.0096 55.2612 60.3908 56.652 61.7791C57.412 62.5391 57.571 63.4797 57.1533 64.3634C56.6937 65.3275 55.6688 65.9634 54.6636 65.8951C54.0268 65.8518 53.5296 65.5397 53.0874 65.0998C52.539 64.5556 51.9874 64.0145 51.4359 63.4734C50.2864 62.3459 49.1372 61.2185 48.017 60.0629C47.5356 59.5643 47.3028 59.6583 46.8789 60.0906C45.1774 61.8183 43.4483 63.5209 41.7091 65.2114C40.9287 65.9715 39.9995 66.1087 39.0942 65.6749C38.1308 65.2154 37.518 64.2453 37.5659 63.2716C37.5974 62.6115 37.926 62.1068 38.3855 61.6554C39.9377 60.1267 41.4866 58.5943 43.0354 57.0619L43.0619 57.0357C43.7166 56.388 44.3712 55.7403 45.0261 55.0929C45.1203 54.9999 45.2097 54.903 45.3177 54.786C45.3785 54.7202 45.4451 54.648 45.5218 54.5666ZM37.5981 37.2161C37.5665 42.5354 41.9803 46.9379 47.361 46.9555C52.7977 46.9731 57.2416 42.6707 57.2691 37.3634C57.2951 31.9299 52.9251 27.5335 47.4787 27.5199C42.044 27.5039 37.6282 31.8374 37.5981 37.2161ZM47.441 32.4839C50.1115 32.4859 52.2419 34.5886 52.2526 37.2297C52.2598 39.8687 50.1354 41.9855 47.4644 41.9951C44.7863 42.0051 42.637 39.916 42.6171 37.2865C42.5972 34.6203 44.7461 32.4799 47.441 32.4839Z" fill="#E32E30"/>
</svg>
