<svg width="94" height="94" viewBox="0 0 94 94" fill="none" xmlns="http://www.w3.org/2000/svg">
<path fill-rule="evenodd" clip-rule="evenodd" d="M46.8454 91.9401C71.8203 91.9401 92.0664 71.694 92.0664 46.7192C92.0664 21.7445 71.8203 1.49839 46.8454 1.49839C21.8705 1.49839 1.62437 21.7445 1.62437 46.7192C1.62437 71.694 21.8705 91.9401 46.8454 91.9401ZM46.8454 93.3401C72.5935 93.3401 93.4664 72.4672 93.4664 46.7192C93.4664 20.9713 72.5935 0.0983887 46.8454 0.0983887C21.0973 0.0983887 0.224365 20.9713 0.224365 46.7192C0.224365 72.4672 21.0973 93.3401 46.8454 93.3401ZM46.8462 32.4377C47.2373 32.7304 47.5803 32.7616 48.6023 32.8216C51.6011 32.9919 53.5011 33.6324 55.6147 35.1846C58.2032 37.0775 59.8274 39.7188 60.4439 43.0343C60.6022 43.8932 60.679 44.6225 60.7342 45.7213C60.7654 46.4578 60.7918 46.7432 60.9573 47.0647C61.1948 47.5037 61.653 47.7964 62.1832 47.8468C62.236 47.8516 62.2864 47.854 62.3391 47.854C62.8117 47.854 63.2508 47.6525 63.529 47.3046C63.9009 46.8512 63.9009 46.429 63.8649 45.5197C63.757 42.7032 63.1428 40.1723 62.0345 37.9987C61.2428 36.4513 60.4895 35.4365 59.1484 34.1242C57.721 32.7328 56.6175 31.9579 54.9357 31.1542C53.1557 30.3026 51.8938 30.0339 50.0489 29.8084C49.6771 29.7652 48.9766 29.71 48.4896 29.6932C47.5611 29.6644 47.1989 29.6884 46.7719 30.0699C46.4432 30.3577 46.2657 30.7968 46.2801 31.2742C46.2945 31.7492 46.5008 32.1714 46.8462 32.4377ZM57.044 46.5494C56.2572 46.1631 56.1924 45.4146 56.1924 44.6157C56.1924 43.3275 55.8541 41.9864 55.2688 40.9404C54.5994 39.7433 53.623 38.7501 52.4427 38.0664H52.4403C51.4255 37.4739 49.8782 37.0228 48.4963 36.9125C48.0141 36.8741 47.4672 36.7781 47.0881 36.3463C46.6083 35.8113 46.5579 35.0484 46.961 34.4511C47.4768 33.6642 48.3524 33.7242 49.5327 33.8993C53.0113 34.3959 55.6766 35.9601 57.4567 38.5438C58.4379 39.9736 59.0688 41.6913 59.2823 43.5098C59.3279 43.9152 59.3999 45.3594 59.2415 45.7625C59.1168 46.0743 58.7953 46.4198 58.4762 46.5829C58.2963 46.6741 58.0588 46.7173 57.8141 46.7173C57.5406 46.7173 57.2599 46.6621 57.044 46.5494ZM53.1653 39.7424C52.388 39.0299 51.4788 38.5836 50.3033 38.3389C50.0346 38.2837 49.5788 38.2334 49.2933 38.2166C48.8039 38.1878 48.6024 38.1926 48.2545 38.3605C47.8347 38.574 47.5396 38.9651 47.4461 39.4353C47.3525 39.9031 47.4724 40.3733 47.7771 40.7308C48.1322 41.1363 48.4944 41.237 49.2261 41.3234C50.4496 41.4697 51.1381 41.8824 51.5292 42.6981C51.7259 43.1155 51.8363 43.5713 51.901 44.2287C51.9682 44.8429 52.0882 45.2387 52.5272 45.5626C52.8031 45.7689 53.1509 45.8721 53.4964 45.8721C53.873 45.8721 54.2473 45.7497 54.5208 45.505L54.5232 45.5026C55.0893 44.9916 55.1133 44.3606 54.9598 43.3722C54.7223 41.7888 54.1705 40.6684 53.1653 39.7424ZM63.2415 55.507C63.6373 55.9844 63.8484 56.5386 63.8772 57.1551V57.1575C63.8964 57.6254 63.81 58.1124 63.6157 58.597C63.4094 59.1176 62.9968 59.7245 62.6849 60.1419C62.1019 60.924 61.3798 61.7157 60.7489 62.2603C60.6169 62.3754 60.485 62.4858 60.3626 62.577C60.2595 62.6537 60.1635 62.7209 60.0652 62.7857C59.5134 63.1695 59.0288 63.4142 58.5466 63.5606C58.2011 63.6661 57.8389 63.7261 57.4334 63.7453C57.3039 63.7525 57.1863 63.7549 57.0736 63.7549C56.4474 63.7549 56.0348 63.6445 55.1424 63.2847C54.4059 62.9872 53.6406 62.6561 52.8033 62.2675L52.5826 62.1667C51.8725 61.8357 51.1672 61.4806 50.4235 61.0848L50.1452 60.9336C49.4255 60.545 48.7298 60.1467 48.0772 59.7461L47.8925 59.6285C43.3919 56.8433 39.6039 53.4055 36.3172 49.128C36.0101 48.7249 35.7126 48.3219 35.4224 47.9165C35.3248 47.7805 35.2294 47.6424 35.1339 47.5043C35.0862 47.4353 35.0385 47.3663 34.9905 47.2975L34.6091 46.7409C34.3668 46.3787 34.1341 46.0164 33.9062 45.6518L33.8462 45.5582C33.6159 45.1864 33.3952 44.8169 33.1817 44.4475L33.1265 44.3539C32.0613 42.5019 31.1641 40.6066 30.466 38.721C29.7319 36.7466 29.5255 35.5687 30.334 34.2108C30.6771 33.6494 31.9414 32.4763 32.7618 31.8765C34.2564 30.7898 34.9354 30.4011 35.5519 30.274C35.9981 30.178 36.7154 30.238 37.2168 30.4155C37.4495 30.4947 37.7782 30.6626 37.9797 30.7874C39.196 31.5767 42.1156 35.3144 43.0369 37.0704C43.6534 38.246 43.8405 39.1288 43.627 39.8461C43.4063 40.621 42.9913 41.0384 41.6838 42.0676C41.3863 42.3051 41.0985 42.5426 40.9017 42.7202C40.8464 42.7686 40.8066 42.8059 40.7695 42.8407L40.765 42.8449L40.7098 42.9025C40.5827 43.1136 40.4675 43.4975 40.4675 43.7637C40.4723 44.4499 40.9545 45.9253 41.7486 47.1992C42.3196 48.118 43.3511 49.3031 44.3779 50.2171C45.5798 51.2943 46.645 52.0308 47.8325 52.6066C49.2384 53.2903 50.1044 53.4894 50.6322 53.2495C50.7617 53.1895 50.8673 53.132 50.9345 53.0936C50.9338 53.0936 50.9441 53.0814 50.9734 53.0469C51.0527 52.9532 51.2714 52.695 51.7885 52.0692C52.4507 51.2559 52.7913 50.8721 53.2567 50.6274C53.3911 50.5578 53.5326 50.4978 53.7341 50.4307C54.6506 50.1284 55.5814 50.2076 56.5074 50.6682C57.1336 50.9872 58.4746 51.7981 59.3239 52.3763C60.413 53.1224 62.8576 55.056 63.2415 55.507Z" fill="#E32E30"/>
</svg>
