<svg width="94" height="94" viewBox="0 0 94 94" fill="none" xmlns="http://www.w3.org/2000/svg">
<path fill-rule="evenodd" clip-rule="evenodd" d="M92.3609 46.7192C92.3609 71.694 72.1148 91.9401 47.1399 91.9401C22.165 91.9401 1.9188 71.694 1.9188 46.7192C1.9188 21.7445 22.165 1.49839 47.1399 1.49839C72.1148 1.49839 92.3609 21.7445 92.3609 46.7192ZM93.7609 46.7192C93.7609 72.4672 72.888 93.3401 47.1399 93.3401C21.3918 93.3401 0.518799 72.4672 0.518799 46.7192C0.518799 20.9713 21.3918 0.0983887 47.1399 0.0983887C72.888 0.0983887 93.7609 20.9713 93.7609 46.7192ZM58.1216 63.0997C58.3804 63.2681 58.6806 63.3546 58.9833 63.3546C59.1834 63.3546 59.3836 63.3172 59.5715 63.2424C60.0499 63.0529 60.3966 62.6436 60.4942 62.1571L66.5208 31.8514C66.533 31.7952 66.5403 31.7391 66.5452 31.683C66.5525 31.6034 66.5525 31.5263 66.5476 31.4467C66.5232 31.138 66.3987 30.8363 66.1717 30.586C66.1473 30.5579 66.1204 30.5299 66.0912 30.5041C65.8153 30.2469 65.4638 30.1065 65.1075 30.0855C65.044 30.0831 64.983 30.0831 64.922 30.0855C64.7487 30.0972 64.5754 30.1346 64.4143 30.2001L28.704 43.8174C28.1158 44.042 27.7301 44.5869 27.735 45.1951C27.7399 45.8008 28.1304 46.3435 28.7235 46.561L38.1137 50.0016L40.7425 59.5468C40.8719 60.0146 41.2331 60.3935 41.7091 60.5573C42.1851 60.7186 42.7147 60.6485 43.1248 60.3655L48.3605 56.7565L58.1216 63.0997ZM57.9117 59.4065L49.2173 53.7556C49.2051 53.7463 49.1905 53.7369 49.1758 53.7276L49.1758 53.7275L45.6609 51.4447L62.6031 35.8229L57.9117 59.4065ZM43.1443 56.7261L41.98 52.4973C42.085 52.6399 42.2168 52.7616 42.3681 52.8621L45.6536 54.9952L43.1443 56.7261ZM39.9468 47.52L33.4979 45.1576L58.3071 35.6989L42.1655 50.5817C41.9019 50.8249 41.7408 51.1477 41.7018 51.4892L40.8841 48.5187C40.7596 48.0603 40.4105 47.6884 39.9468 47.52Z" fill="#E32E30"/>
</svg>
