<svg width="94" height="94" viewBox="0 0 94 94" fill="none" xmlns="http://www.w3.org/2000/svg">
<path fill-rule="evenodd" clip-rule="evenodd" d="M92.3084 46.7202C92.3084 71.6951 72.0622 91.9413 47.0873 91.9413C22.1125 91.9413 1.86631 71.6951 1.86631 46.7202C1.86631 21.7453 22.1125 1.49912 47.0873 1.49912C72.0622 1.49912 92.3084 21.7453 92.3084 46.7202ZM93.7084 46.7202C93.7084 72.4683 72.8354 93.3413 47.0873 93.3413C21.3393 93.3413 0.466309 72.4683 0.466309 46.7202C0.466309 20.9721 21.3393 0.0991211 47.0873 0.0991211C72.8354 0.0991211 93.7084 20.9721 93.7084 46.7202ZM66.2044 55.3009C66.2454 55.3681 66.2893 55.4506 66.3365 55.5512C66.3828 55.6509 66.4301 55.8282 66.4786 56.081C66.5249 56.3349 66.5224 56.5613 66.4677 56.7616C66.4133 56.9604 66.2454 57.1438 65.9613 57.3104C65.6785 57.477 65.279 57.5607 64.7668 57.5607L59.5794 57.6411C59.2552 57.7083 58.8775 57.6745 58.4454 57.5405C58.013 57.4073 57.6621 57.2613 57.3913 57.1006L56.9857 56.861C56.5816 56.5807 56.1091 56.154 55.5676 55.5813C55.0286 55.0086 54.5657 54.492 54.1809 54.0319C53.7948 53.5718 53.3833 53.1862 52.9447 52.8721C52.5051 52.5595 52.124 52.4552 51.7998 52.5617C51.7585 52.5761 51.705 52.5988 51.6382 52.6325C51.5704 52.666 51.4548 52.762 51.2935 52.9224C51.1306 53.0819 50.9863 53.2782 50.8577 53.512C50.7287 53.7457 50.6133 54.092 50.5126 54.5509C50.4119 55.011 50.3681 55.5273 50.3814 56.1003C50.3814 56.3003 50.3572 56.4837 50.3099 56.65C50.2636 56.8165 50.2127 56.9402 50.1583 57.0205L50.0781 57.1199C49.8353 57.3727 49.4769 57.5199 49.0047 57.5595H46.6746C45.7153 57.6135 44.7293 57.5033 43.7166 57.23C42.7026 56.9567 41.8152 56.6034 41.0514 56.1708C40.2889 55.7371 39.5929 55.2972 38.9653 54.8503C38.3362 54.4046 37.8603 54.0212 37.5361 53.7012L37.0297 53.2209C36.8951 53.0877 36.7092 52.889 36.4723 52.6218C36.2367 52.3546 35.7537 51.7482 35.0238 50.8015C34.2939 49.8562 33.579 48.8497 32.8759 47.7832C32.174 46.7169 31.3471 45.3114 30.395 43.5642C29.442 41.8185 28.5616 40.0056 27.7506 38.1268C27.6692 37.9136 27.6291 37.7338 27.6291 37.5863C27.6291 37.44 27.6496 37.3335 27.6897 37.2663L27.7712 37.1464C27.9738 36.8936 28.359 36.7667 28.926 36.7667L34.4773 36.7271C34.6402 36.7535 34.7944 36.7967 34.9436 36.8565C35.0919 36.9176 35.1997 36.974 35.2678 37.0268L35.3685 37.0866C35.5849 37.2341 35.7475 37.4473 35.8556 37.7265C36.1251 38.3939 36.436 39.0829 36.7869 39.7958C37.1379 40.5099 37.4145 41.0528 37.6175 41.4255L37.9417 42.0053C38.334 42.8059 38.7114 43.4982 39.0757 44.0844C39.4412 44.6715 39.7692 45.128 40.0592 45.4537C40.3495 45.781 40.6299 46.0375 40.8994 46.2243C41.1702 46.4114 41.3999 46.5046 41.5879 46.5046C41.7775 46.5046 41.9597 46.4712 42.1356 46.404C42.1624 46.3908 42.1963 46.3574 42.2364 46.3046C42.2777 46.2506 42.3591 46.1046 42.4804 45.8648C42.6019 45.624 42.693 45.3114 42.7536 44.9243C42.8145 44.5384 42.8789 43.9979 42.9454 43.3056C43.0135 42.6117 43.0135 41.7789 42.9454 40.8059C42.919 40.2728 42.858 39.7863 42.7636 39.3464C42.67 38.9068 42.5752 38.6001 42.4804 38.4274L42.3591 38.1866C42.0203 37.7338 41.4471 37.4473 40.6361 37.3274C40.4611 37.301 40.4953 37.1406 40.7381 36.847C40.9675 36.5943 41.2236 36.394 41.5077 36.2479C42.2242 35.9016 43.8381 35.7409 46.3504 35.7673C47.4576 35.7817 48.3697 35.8679 49.0858 36.0274C49.3557 36.0946 49.5813 36.1844 49.7635 36.2982C49.9456 36.4108 50.084 36.5713 50.1788 36.7774C50.2736 36.9847 50.3451 37.1979 50.3914 37.4173C50.4386 37.6378 50.4629 37.9409 50.4629 38.3268C50.4629 38.7139 50.4557 39.0804 50.4424 39.4268C50.429 39.7731 50.4119 40.2427 50.3914 40.836C50.3718 41.4289 50.3622 41.9789 50.3622 42.4859C50.3622 42.632 50.3547 42.9123 50.3413 43.3258C50.328 43.7381 50.3246 44.0592 50.3305 44.2856C50.3379 44.512 50.3622 44.7816 50.4023 45.0945C50.4424 45.4083 50.5201 45.6684 50.6354 45.8746C50.7495 46.0816 50.9012 46.2448 51.0908 46.3645C51.1987 46.3908 51.314 46.4172 51.4355 46.4448C51.5571 46.4712 51.7318 46.3982 51.9624 46.2243C52.1921 46.0519 52.4483 45.8218 52.7324 45.5353C53.0152 45.2491 53.3662 44.8019 53.7852 44.1958C54.2039 43.5893 54.663 42.8728 55.1632 42.0461C55.9745 40.6599 56.6957 39.1608 57.332 37.5479C57.3854 37.4148 57.4532 37.2976 57.5334 37.1979C57.6148 37.0973 57.6888 37.028 57.7569 36.9884L57.8371 36.9286L57.9378 36.878C57.9378 36.878 58.0264 36.8578 58.2023 36.8182C58.3773 36.7774 58.5132 36.7752 58.6067 36.8074L64.4425 36.7679C64.9694 36.7007 65.4018 36.7176 65.7394 36.8182C66.077 36.9176 66.2855 37.028 66.367 37.1476L66.4873 37.3467C66.7981 38.1998 65.7854 40.159 63.4478 43.2252C63.1249 43.6516 62.6853 44.2185 62.1317 44.9243C61.0776 46.258 60.4706 47.1301 60.308 47.5436C60.0786 48.0899 60.1731 48.6304 60.5921 49.1635C60.8215 49.4427 61.3692 49.9893 62.2337 50.8028H62.2533L62.2738 50.823L62.2946 50.8423L62.3344 50.8831C64.2383 52.6288 65.5293 54.1015 66.2044 55.3009Z" fill="#E32E30"/>
</svg>
