<svg width="95" height="94" viewBox="0 0 95 94" fill="none" xmlns="http://www.w3.org/2000/svg">
<path fill-rule="evenodd" clip-rule="evenodd" d="M92.7125 46.7192C92.7125 71.694 72.4664 91.9401 47.4916 91.9401C22.5167 91.9401 2.27061 71.694 2.27061 46.7192C2.27061 21.7445 22.5167 1.49839 47.4916 1.49839C72.4664 1.49839 92.7125 21.7445 92.7125 46.7192ZM94.1125 46.7192C94.1125 72.4672 73.2396 93.3401 47.4916 93.3401C21.7435 93.3401 0.870605 72.4672 0.870605 46.7192C0.870605 20.9713 21.7435 0.0983887 47.4916 0.0983887C73.2396 0.0983887 94.1125 20.9713 94.1125 46.7192ZM47.8598 65.9403C58.8495 65.9403 67.7563 57.1019 67.7563 46.1978C67.7563 35.2937 58.8523 26.4553 47.8598 26.4553C36.8701 26.4553 27.9633 35.2937 27.9633 46.1978C27.9633 49.9275 29.0061 53.4178 30.8182 56.3925L27.2282 66.9831L38.2435 63.4843C41.0956 65.0485 44.3723 65.9403 47.8598 65.9403ZM31.1317 46.1978C31.1317 37.046 38.6367 29.5981 47.8598 29.5981C57.0858 29.5981 64.5879 37.046 64.5879 46.1978C64.5879 55.3496 57.0858 62.7947 47.8598 62.7947C44.4635 62.7947 41.2979 61.7861 38.6566 60.0509L32.2286 62.0938L34.32 55.928C32.317 53.1927 31.1317 49.8306 31.1317 46.1978ZM57.2241 50.3005C57.5733 50.468 57.8068 50.58 57.9092 50.7452C58.0289 50.9447 58.0289 51.9134 57.6243 53.0446C57.2169 54.1757 55.2252 55.2642 54.3305 55.3468C54.177 55.3605 54.0498 55.3909 53.9194 55.422C53.2898 55.5724 52.585 55.7408 48.4781 54.1359C43.9057 52.349 40.8893 47.9181 40.2557 46.9874C40.2023 46.909 40.1658 46.8554 40.1468 46.8304C39.9018 46.5084 38.1552 44.2062 38.1552 41.8271C38.1552 39.5965 39.2595 38.4278 39.7672 37.8905C39.8017 37.854 39.8334 37.8205 39.8619 37.7897C40.3092 37.3053 40.8363 37.1856 41.164 37.1856C41.3317 37.1856 41.4995 37.1963 41.6617 37.2065C41.8136 37.2162 41.9608 37.2255 42.0986 37.2255C42.1328 37.2255 42.1688 37.2232 42.2063 37.2207C42.4808 37.2028 42.8371 37.1796 43.1955 38.0319C43.3107 38.3077 43.4724 38.6982 43.6475 39.1212C44.0874 40.1837 44.6123 41.4515 44.7 41.6248C44.8225 41.867 44.9023 42.149 44.7398 42.471C44.7151 42.5205 44.6923 42.5671 44.6705 42.6116C44.5493 42.8593 44.4603 43.0411 44.2526 43.2802C44.1684 43.3771 44.0815 43.4818 43.9948 43.5862C43.8292 43.7857 43.6644 43.9843 43.5204 44.1264C43.2753 44.3686 43.0217 44.6307 43.3067 45.1151C43.5916 45.5995 44.5689 47.1808 46.0192 48.4658C47.5787 49.8441 48.9326 50.4281 49.6184 50.7239C49.752 50.7815 49.8603 50.8282 49.9398 50.8678C50.4299 51.1099 50.7148 51.0672 50.9969 50.7452C51.2818 50.4204 52.2192 49.332 52.544 48.8476C52.8689 48.3633 53.1937 48.4459 53.641 48.6054C54.0855 48.7679 56.4846 49.9389 56.9718 50.1782C57.0616 50.2226 57.1458 50.263 57.2241 50.3005Z" fill="#E32E30"/>
</svg>
